/* XPM */
static char *_f9668c175e348ecad6d616e17b7dc67qIYWvPVHuTuRj9Cu[] = {
/* columns rows colors chars-per-pixel */
"64 64 254 2 ",
"   c #1D0C1D",
".  c #2E171A",
"X  c #371A17",
"o  c #331E1B",
"O  c #3C230C",
"+  c #35201D",
"@  c #3B221D",
"#  c #1F1025",
"$  c #241323",
"%  c #2B1724",
"&  c #261429",
"*  c #2D1A2C",
"=  c #331C24",
"-  c #3A1D26",
";  c #341D2A",
":  c #311E32",
">  c #362123",
",  c #3A2123",
"<  c #37202C",
"1  c #39212E",
"2  c #342235",
"3  c #3B2231",
"4  c #3A273B",
"5  c #492D11",
"6  c #743317",
"7  c #441D24",
"8  c #462626",
"9  c #552B2A",
"0  c #442735",
"q  c #583331",
"w  c #6E322F",
"e  c #783937",
"r  c #5B470E",
"t  c #6C5718",
"y  c #78413B",
"u  c #2B1B43",
"i  c #3B2C47",
"p  c #4B394D",
"a  c #733C48",
"s  c #583579",
"d  c #53435A",
"f  c #76494E",
"g  c #5E516B",
"h  c #6E6D7C",
"j  c #893A18",
"k  c #8E362A",
"l  c #89362C",
"z  c #853B36",
"x  c #8A3C33",
"c  c #933C34",
"v  c #924D11",
"b  c #AA5609",
"n  c #A9580B",
"m  c #AA5917",
"M  c #8A7811",
"N  c #B26410",
"B  c #974A2D",
"V  c #8C433B",
"C  c #894438",
"Z  c #974638",
"A  c #94453C",
"S  c #9C4B3C",
"D  c #AA5929",
"F  c #A44D39",
"G  c #A9563A",
"H  c #AD5438",
"J  c #B66828",
"K  c #AA6937",
"L  c #B66739",
"P  c #843E41",
"I  c #8A4845",
"U  c #964A44",
"Y  c #9C4D43",
"T  c #9A5447",
"R  c #855452",
"E  c #985957",
"W  c #A35344",
"Q  c #A75646",
"!  c #AC5B45",
"~  c #A55B4B",
"^  c #AB5C4B",
"/  c #AA584E",
"(  c #B35C44",
")  c #B85E44",
"_  c #B35E4A",
"`  c #9C6655",
"'  c #AA6147",
"]  c #AD624C",
"[  c #B56547",
"{  c #B4634C",
"}  c #BA654D",
"|  c #BD6A4E",
" . c #B5734E",
".. c #AA6557",
"X. c #B36552",
"o. c #B56A53",
"O. c #B76857",
"+. c #BB6C54",
"@. c #BC6D5B",
"#. c #BD7155",
"$. c #BD725B",
"%. c #815371",
"&. c #856665",
"*. c #976668",
"=. c #937774",
"-. c #AE7066",
";. c #BD7462",
":. c #B97867",
">. c #B87D73",
",. c #C3734C",
"<. c #C16D58",
"1. c #C57658",
"2. c #C3745C",
"3. c #C4795D",
"4. c #C27562",
"5. c #C77567",
"6. c #CA7366",
"7. c #C47B64",
"8. c #C97C64",
"9. c #C47D6A",
"0. c #CA7D6A",
"q. c #C67E72",
"w. c #A09918",
"e. c #ACAC08",
"r. c #BBC030",
"t. c #D7D009",
"y. c #EBE802",
"u. c #F4ED00",
"i. c #FAEF01",
"p. c #F4EC09",
"a. c #FCF401",
"s. c #F9F405",
"d. c #F8F312",
"f. c #F5F42F",
"g. c #AEA35F",
"h. c #988F7A",
"j. c #B98379",
"k. c #AD9178",
"l. c #CB8166",
"z. c #C5826B",
"x. c #C8846A",
"c. c #CB836C",
"v. c #D1846D",
"b. c #C68576",
"n. c #CB8572",
"m. c #CD8A75",
"M. c #CD8C7A",
"N. c #D28673",
"B. c #D18B75",
"V. c #D28E7A",
"C. c #CE917A",
"Z. c #D3917D",
"A. c #D8977D",
"S. c #D6D55F",
"D. c #F1F352",
"F. c #F2F573",
"G. c #2B43A5",
"H. c #78728F",
"J. c #595EAD",
"K. c #746FBB",
"L. c #5871CE",
"P. c #6877CB",
"I. c #6479D7",
"U. c #727DD2",
"Y. c #567AE0",
"T. c #837B8E",
"R. c #947684",
"E. c #857D93",
"W. c #897F99",
"Q. c #A27E80",
"!. c #7B8881",
"~. c #5E80D2",
"^. c #6881D2",
"/. c #9B8986",
"(. c #86829B",
"). c #8A8398",
"_. c #8B859D",
"`. c #94889B",
"'. c #AC8F8E",
"]. c #B68987",
"[. c #BA9596",
"{. c #B5AD8E",
"}. c #8B86A2",
"|. c #8D89A3",
" X c #938BA4",
".X c #948DA8",
"XX c #9A95AA",
"oX c #9B94AB",
"OX c #9794B1",
"+X c #9A96B3",
"@X c #9C99B5",
"#X c #9E9BB9",
"$X c #9E9CBA",
"%X c #9D9CBC",
"&X c #A596A9",
"*X c #A19AAD",
"=X c #B69AA8",
"-X c #A39DB3",
";X c #A79CB5",
":X c #A09CB9",
">X c #A09DBD",
",X c #BBA3A8",
"<X c #A5A1B6",
"1X c #AEA6B2",
"2X c #AAA2B5",
"3X c #A6A3BA",
"4X c #AAA5BA",
"5X c #A9A9B8",
"6X c #ACA9BD",
"7X c #B5A8B8",
"8X c #B3ABBD",
"9X c #C68F85",
"0X c #D49482",
"qX c #D89986",
"wX c #C7BA8E",
"eX c #D3A19B",
"rX c #CBB1B1",
"tX c #CDC990",
"yX c #ECEF8F",
"uX c #CAC8AB",
"iX c #D1D4A7",
"pX c #DBE4AE",
"aX c #E7E8B5",
"sX c #ABA4C5",
"dX c #AEABC1",
"fX c #B2AEC3",
"gX c #B8ADC7",
"hX c #B5B1C6",
"jX c #B9B2C5",
"kX c #B7B9C7",
"lX c #B5B3C9",
"zX c #BAB6CA",
"xX c #BDBACD",
"cX c #BCBBD1",
"vX c #C2BCCC",
"bX c #D1BEC4",
"nX c #C3BDD3",
"mX c #C4C2D4",
"MX c #C9C7D9",
"NX c #D5CBD1",
"BX c #D6CBD7",
"VX c #CCD2DE",
"CX c #E5D7DA",
"ZX c #F2E0DC",
"AX c #CED3E3",
"SX c #CDD7E8",
"DX c #D2D3E3",
"FX c #D0D0E6",
"GX c #D4DAE6",
"HX c #D7DAE9",
"JX c #E2D9E6",
"KX c #DCE3EB",
"LX c #DDE9F5",
"PX c #E4E8EE",
/* pixels */
"$X$X$X$X#X>X>X>X>X>X>X>X>X>X>X>X>X>X>X>X>XsX%X%XsXd * i & : * p * 0 p g H.H.+X#X%X%X$X#X#X#X$X$X$X@X#X#X+X#X#X#XOX@X%X+X+X%X%XOX",
"#X#X:X:X:X#X>X>X>X>X>X>X>X>X#X>X>X>X>X%X%X%XH.2 2 i :   : * : : : : %   : d p $X%X%X$X$X$X#X$X@X#X#X@X@X#X#X@X@X@XOX+X$X+X+X+XOX",
"-X@X#X@X:X#X:X:X#X>X:X>X>X#X>X#X%X%X>X%X>X* 4 4 4 2 & * $ # # & p i : p p : 4 sX%X%X%X%X$X#X@X@X@X#X+X@X+X+X+X@X+X+X$XOX+X%X@X+X",
"#X#X#X@X#X:X+X:X#X:X:X#X>X#X#X#X%X%X%X%Xg 4 2 2 # * * *     & % # 0 %     ; : oX+X#X#X%X#X+X@X@X@X@X@X+X#XOX@XOX@XOX+XOXOXOX@XOX",
"@X@X+X;X+X+X:X:X#X#X+X#X#X+X#X#X%X#X%X|.2 * $ * # & $ $ %   $ = 1 ; ; = 7 7 - W.+X+X#X+X#X+X@X#X+X+X@X+X@XOXOX+XOXOXOXOX+XOX+XOX",
"@X+X+X:X+X:X+X:X@X%X+X+X+X#X+X#X$X#X#Xp * &   * = $ = - - . - q w f I I -.:.>..X$X@X+X+X+X+X+X#X@X@X+XOX+XOXOX@XOXOXOXOXOXOXOXOX",
"+X+X:X+X+X+X+X+X+X+X+X#X@X@X@X#X#X+XH.2 $ $ % = = 8 8 0 9 q f f ` :.9X0X0Xq.9X'.@XOX+X+XOX+X+X+XOXOXOXOXOXOXOXOXOXOXOX|.OX|..X.X",
"+X+XOX+X+X+X+X+X+X+X+X+XOXOX+XOXOX$X%Xd % * < 1 8 8 9 q a q e a E -.q.N.0X0X0X[.|..X|.|.|.}.}.}.}.}.}.}.(.}.}.H.}.(.}.(.(.}.(.}.",
".X}.|.}.|.}.}._.}.}.}._.}.}.}.}.}.}.}.d $ . , 9 9 q q 9 q q e ~ X.O.-.-.b.9XM.E g ).)._._._.).)._.(.(.).(.)._._.(.H._.(.(.(.E.(.",
"}.W.}.}.|.|._. X}.(._._.}.}.(.}._. X}.H.= * - 7 8 9 8 8 9 e ..] ^ ..E >.9X/ M.-.`._.(._.).).).).)._._.`.(.).E.XX}..X|.oX_.).(.(.",
" X}. X X X`._._.|._._.|. X_._.}._.|.). X2 > T F B $.y 9 9 e ~ ] +.2.Q q..._ 0Xq.T.).(.E.E.).).)._._.H.E.T.).).E.(.).H.T.H.).H.).",
" X.X.X.X*X.XoXoX+X@XoX X X X.X.X.X`.|._..X< T 4.Z c ^ T I T ! ! 2.V.qXeX0X6.q.qXR._.)._.`.).E.).`.`._._. X_._._.|. XoX`.oX X`. X",
" X X X X.X`. X X X`..X.X X.X X.X.X}.|.`.}.`.- X.<._ 6.~ ~ W ' ] @.9.B.qXZ.} 6.0X=X;X<XoXoXoXoX@XoXXXXXoXXXoXOXXX.XoX.X.XXXXXXXXX",
";XsX6X3X3XsX@X@X-X@X@X3XdX3X@XoXoX@X#X;X@X:X`.9 6 X.@.A T T ' { 7.x.c.B.x.] / 9X2X3X@XoXXXoX-XoXoX#X@X3X3X;XoX@X@X;XoXoX@X<X:X<X",
"hXfXhXzXzXhXhXzXzXhXjXhXdXhXjXhXxXlXhXdXfXfXgXf z z l z C S ! #.7.x.x.c.c.6.<.=X5X3X3X3X6X3X5X8X5X2XhXhXhXhXzXfX5X6X6X6X6X5X8X6X",
"xX<XoX:X3XzX3X-X3X3X@X@XdXdXdXfXfXjXhXdX6X3X7Xh U I c z C C S G { x.7.m.;.O.6.[.oX*XoX&X<XoXoX.X.XXX XXXoXXXoXoXoX X@X;X3X5X3X5X",
"cXhXhXdX5X3X<X-X<X5X<X5X$X6XhX8XhX3X@X<X*X<X<Xf C S S U C l C Z Z ! [ j.7.x.b.,X5X2X-X3X-X3X-X*X4X2X;XdX6X6XhXzXxXcXxXzXfXsX<X5X",
"6X3X6XdX3X-XoX@X@X#X<XfX5X-X@X-X-X<X*X-X5X5X,XE C Z Z S Z C C B C B Z G #.0.j.8XgXfXjXzXzXzXzXvXzXfX6X;X4XhXlXlXcXcXcXMXmXlXhX3X",
"3X3X2XfXkX8X8XkXzXlXdXlXmXlX5XxXmXmXxXgXzX'.E U V V Z S Z Z S S ^ ~ x.l.c.n.n.>.].,XnXgX5XdX@XoX:X4X5XhXzXzXzX8XfX3X2X*X*X-X6X6X",
"5X6X2XfXhXlXlX5X3XzXdXdX3X6XdXfXhX6X6X7X*.T T Y C A Z S W S S F Q #.;.$.l.m.qXqXl.@.X.:.>.].'.,X7XfXfX6X5X<X3X5XlXhX4X;X4X3XdXhX",
"*XoX-X*X3X;X2XzXgXgXzXhXhXgX4X3X;X'.` ..~ ~ W T A V S ~ ! F ! X. .$.2.4.5.n.M.q.9.$.' X.] #.$.9.z.[.oXoX5X5X5X3X6XhX5XXX.XoX5XfX",
"4X-X2X&X*X4X8X-X4XvXzXgX8XdXgX'.E ....o.O...] ' Y x Z ! o.{ | } [ +.8.$.@.O.;.@.;.;.;.o.$.$.z.c.b.b.].2X5X2X4XhXlXhXlXkXjXzXxXhX",
"8X7X8X-X;X2X*X4X2XdXgXsX2X'.*...X.;.;.9.z.$.$...~ A W Q $.| { H ) } @.O.O.@.9.9.5.n.c.z.9.9.z.m.n.m.b.].;X@X*X*XoXoXXX*XXX@X3X<X",
"-XzXzX8X4X4X2X;X2XoXoX&X*...O.o.9.:.z.z.z.z.b.9.X.Y O.} 0.l.( ! _ 0.3.5.o.<.4.0.9.n.9.M.m.C.z.m.b.m.m.b.].jX5X2X&XoX-X2X5X5X5X-X",
"&X X`.&X&X8XjXzX2X3X&X*.....;.7.5.n.B.8.0.7.o.! F / <.<.N.N.5.<.5._ <.<.@.5.0.9.m.m.m.n.N.M.c.z.l.m.z.m.z.rXnXvX8X<X5X5XmXMXzX<X",
"4X7X2X7X8X1X;XoXoX[.*...o.z.9.7.9.0.9.2.@.O.o.@.4.0.q.N.v.c.N.l.{ { @.$.n.n.n.M.m.M.V.M.V.M.m.z.$.$.z.m.x.j.vXVXVXVXmXMXmXMXzX`.",
"*X&X&X&X&X&XoX&X*.-.....$.x.z.m.M.n.7.;.;.:.9.b.b.M.n.5.4.0.v.x.@.X.@.7.n.m.V.V.Z.Z.C.C.V.V.B.n.z.' $.l.9.z.BXmXjX*X&XlX`. XmXmX",
"vXgX8X8X7X<X=X*.E ..$.:.b.M.M.Z.Z.9.;.9.9.z.n.n.N.z.b.z.V.0XqXeXM.o.o.2.7.c.m.Z.Z.C.C.Z.0X0XZ.Z.M...o.9.x.z.rXjX8XxXlXjX8XzXnXmX",
"jXmXmXNXmX8XE U ~ ~ o.$.j.x.m.m.n.;.;.:.9.n.n.n.V.M.V.V.0X0X0XqXqX;.o.o.7.8.n.Z.Z.C.Z.0X0XZ.A.Z.Z.V.@.x.x.x.9X4X2X;X2X3X5X3X;XzX",
"1X=X7XDXCXR U Y Y W ] {  .l.z.x.4.$.$.;.4.9.n.n.M.V.V.V.V.M.Z.Z.Z.c.o.#.7.9.x.n.m.Z.Z.qXqXqXqXZ.V.m.+.z.n.x.m.].rXxX8X8X5X5X8X2X",
"mXmXGXMX&XI U U Y ~ ~ ..o.#.$.$.o.X.O.$.$.9.M.m.V.V.M.n.M.V.0X0XA.Z.;.o.o.$.x.n.C.A.0XqXqXqXqXZ.c.l.{ #.x.n.n.b.,XsXjXvXjXjXzXvX",
"GXGXLXKXf A U T W ~ ~ ..] ] { ! ~ / X.+.4.7.0.q.n.V.M.V.m.Z.Z.0XqXZ.c.G G { +.7.z.z.C.Z.0XC.c.z.9.k Q ' 7.9.n.n.*.7XgXvXnXzXmXnX",
"cXnXMXMXa P S P Y ~ ~ / / Q U T W / { X.+.$.2.9.c.n.n.m.V.V.0X0XZ.v.<.{ B F G [ +.7.8.n.c.x.Q :.6 k A _ $.7.x.-.*.Q.DXMXnXfXfXMX",
"nXmXnXnXR.z c P U U U Y U z z U U / ^ ] ] +.<.4.9.n.x.m.B.V.m.Z.m.l.9.l.! B B B G [ | +.+.o.{ X.9 6 c W ' 7.x.M.-.&.8X8X;X&X7X8X",
"xXmXnXzX=Xe l z C A A x w 9 e c U Y Q ! { { +.#.2.7.8.l.z.c.B.n.c.3.l.@.H _ W Z c Z Z S Q O.2.4.eXw k F ! +.x.l.q.*.Q.LXLXKXjXhX",
"mXMXnXvXf z l c Z S Y U w 8 q e P I Z T F G ' [ +.+.2.8.8.8.l.0.#.,.! 7.@.+.9.3.4.<.2.<.2.7.z.N.5.a k c F { $.9.q.9.>.ZXLXKXxXBX",
"nXcXcX=XP P z A Y H Q U q 3 % X w e C B B H H F U S [ +.<.@.} _ } _ } 0.l.$.0.4.0.n.0.0.8.8.N.v.5.ZXw k A ! o.$.2.7.5.qXKXLXKXGX",
"MXMXMXf c P P P W W Y z i u * & . 8 w B D m D F F H H ! F F _ } } ) <.+.{ G $.+.} @.4.8.9.0.n.c.0.,XQ.z k F Q _ { O.5.z.CXKXKXVX",
"cXzXvXI P P P P P a E.J.G.L.G.s 2 8 6 6 j j j j j k Z G F F ( _ ) ( } _ 8.} ! } 0.8.7.l.8.l.N.B.N.].mXf l c S c Q ( $.9.j.KXKXGX",
"8XgX1Xe P P l a K.L.L.J.Y.L.G.h r.6 j j k v D B F H G ( ) F ( } <.} _ _ 5.0.} _ 3.z.c.v.4.O.+.c.9.-.vXnXf l l l c Q } l.b.VXVXVX",
"mXmXmXP C P K.I.I.P.I.L.P.h.f.p.t.v 6 v v b D D L H ) ) _ } <.) ) } <.2.8.0.6.( +.7.4.2.2.2._ _ @.>.DXFXCXw k w k Q O.7.b.BXDXVX",
"MXFXAXP H.P.I.P.P.^.P.g.d.p.y.u.t.g.k.6 v b m D D D L _ } <.1.<.( } <.2.<.<.1.( | +.+.@.$.2.+.} X.CXDXBXVXf l x c W X.4.4.9XVXMX",
"VXMXBXK.Y.I.I.U.I.H.f.s.u.a.u.y.F.g.{.wX` b b m D D H L <.2.} ( H H ) } <.1.1._ } 7.0.v.v.8.2.7.9.GXDXFXFX=.C x c Q _ 4.9.q.JXSX",
"GXBXP.I.I.I.I.I.k.s.i.i.u.s.u.f.yXk.].{.iXK m n b J D J L } H H ) } <.<.6.v.N.1.} 4.N.N.N.8.N.B.n.BXHXDXFX=.A c Z W _ @.9.9.rXmX",
"BX^.I.~.I.^.^.D.a.a.a.i.s.s.s.D.yXA.{.{.iXaXv n b m D H ) ) B D ) <.3.8.8.N.N.0.| 7.c.B.B.x.V.V.c.9XSXDXDXR V x Z W ] @.9.z.].FX",
"J.~.L.~.I.H.f.s.a.a.a.i.s.u.s.F.F.tXk.{.iXpXv b m D H L ,.<.,.H ) ,.1.3.8.l.l.3.[ 2.v.l.c.8.B.A.B.:.HXKXGX&.Z c c T X.@.9.:.>.FX",
"^.I.L.^.tXd.s.s.s.a.a.u.u.s.f.F.yXtX{.wXiXpXn n m J H L } <.1.,.) | ,.1.1.l.8.G B #.l.N.B.V.A.A.Z.7.NXBXDXbXx c c / X.X.9.z.j.jX",
"^.I.!.f.s.a.a.a.a.a.a.s.s.s.D.F.yXwX{.tXiXpXn N N J L ,.,.1.8.3.1.<.<.<.8.v.V.N._ 7.v.B.V.0X0XqX0Xx.eXVXVXDXa x c W ] X.7.z.:.mX",
"^.S.a.a.a.a.a.a.a.a.a.s.s.u.D.yXyXwX{.wXiXpXg.N N N J ,.| 1.l.l.l.l.3.3.l.v.B.V.v.7.v.B.B.Z.Z.A.Z.z.rXHXSXGX7Xl x S / <.4.0.].SX",
"D.d.a.s.a.a.a.a.a.a.a.a.a.a.f.yXyXtX{.{.pXaX6 b b b N J L ,.1.l.l.l.1.1.1.l.l.l.l.1.3.l.v.B.V.Z.V.z.j.HXHXSXJXy c F Q @.9.9.rXGX",
"d.a.s.a.s.a.a.a.a.a.a.a.s.a.d.F.yXtX{.wXuXaXv b b N N m m L +.l.v.v.3.1.1.l.7.l.l.3.2.7.l.V.M.Z.Z.9.9.CXAXAXSX*.z S / @.q.9.NXVX",
"a.a.a.a.a.a.a.a.a.a.a.a.a.s.s.F.yX{.{.{.iXg.b b n N J [ K J L  .l.B.C.$.,.3.7.8.4.1.7.l.x.n.m.C.m.:.n.].VXAXGXHXz c / 4.0.:.DXVX",
"a.a.a.a.a.a.a.a.a.a.a.i.i.i.u.D.yX{.{.uXpXv N N n N J ,.,.L L [ 3.x.A.x. .2.3.7.8.#.#.7.z.c.n.V.z.x.A.;.&XDXSXHXe c / 5.4.j.VXAX",
"a.a.a.a.a.a.a.a.a.a.a.a.i.i.y.D.yX{.{.uXO v N N N N L  .l.x.' K  .l.x.A.$.#.+.7.0.2.#.o.3.7.c.8.@.b.j.8 0 VXSXSXa c W 9.0.[.MXVX",
"a.a.a.a.a.a.a.a.i.a.a.u.s.y.y.F.yX'.{.{.+ , 5 , @ O , 9 T k.qX..T ` -.j.M.-.T ` ` E y 9 9 9 8 0 0 0 3 0 0 PXLXKXh Z / 4.M.rXHXHX",
"a.a.a.a.a.a.a.a.i.a.a.s.s.y.y.F.pX/.{.uX@ @ 8 @ 8 @ @ X o o + + = , @ @ > < > > > - > + = < - - = < 3 0 0 -XKXHX&.Z { 4.z.rXKXHX",
"a.a.a.a.a.a.a.a.u.a.a.u.u.u.y.D.wX/.{.uXp O @ @ + + + + + > > < > > = = = . = % = = * * = ; ; : ; 3 ; 0 3 + KXGXe S / 5.9.,XDXDX",
"a.a.a.a.a.a.d.5 p.a.i.i.u.u.y.t.S.h.{.1Xh.@ @ + + + + o + + = > - = = - % = = < ; 0 = ; : ; ; = ; ; 0 3 0 0 9 ` A ! O.5.;.NXDXAX",
"a.a.a.a.a.s.M 5 d.a.a.a.y.y.y.t.g.).{.h.@ @ @ + o o + + + + = , < 3 < < < < < < - : ; 3 ; 3 1 1 0 : 3 3 3 @ I S X.@.;.9.q.HXSXAX",
"a.a.a.a.a.s.t 5 s.a.s.i.u.y.y.t.w.h.h.o o @ + + o o + + + = > < ; < < < < < 3 < ; : 0 : 3 ; 1 3 ; 3 < = X U U U ..n.q.q.b.JXHXHX",
"a.a.a.a.a.a.s.d.a.i.a.u.s.y.y.t.M f O O = O o o + o o o + > > < < < < 3 3 3 < 3 ; 3 0 3 : ; : - - ; ; . C ..Y U W O.6.q.q.rXHXFX",
"a.a.a.a.a.a.a.i.i.a.i.i.u.y.y.t.t o r e.r.r O o o o o o + > > < < < 1 ; ; ; < ; : - ; - - ; ; ; ; ; = I O.U 9 6 c / q.q.9X].HXHX",
"a.a.a.a.a.a.a.i.i.a.i.i.i.i.y.e.r w.e.w.e.e.5 O o o + @ , , > - < = ; ; - * ; * * - ; - : 3 - 3 0 ; 7 3 : 4 7 V Y Q / Y <.9XbXMX",
"a.a.a.a.a.a.u.a.i.a.i.u.u.p.t.e.h.r e.e.e.w.w.O o o o . . o % = % = = % = = = = * ; ; - * * % $ % % . . w.M C Q / U F %.s p FXFX"
};
