/* XPM */
static char *_94a81b33a7042cac38ca1e7483980ec0Smzjfy0rK3y9SSh[] = {
/* columns rows colors chars-per-pixel */
"64 64 251 2 ",
"   c #1D160C",
".  c #2A0F01",
"X  c #281707",
"o  c #381C05",
"O  c #271D15",
"+  c #3B250B",
"@  c #2C2218",
"#  c #362719",
"$  c #392D22",
"%  c #3B3126",
"&  c #461D09",
"*  c #46270B",
"=  c #552B0D",
"-  c #58320F",
";  c #482D17",
":  c #562D14",
">  c #48331A",
",  c #553413",
"<  c #5C3314",
"1  c #58381B",
"2  c #602F11",
"3  c #623C15",
"4  c #633618",
"5  c #643C1C",
"6  c #473727",
"7  c #583C24",
"8  c #453B32",
"9  c #633D25",
"0  c #6A3D23",
"q  c #5D431B",
"w  c #65431C",
"e  c #69431A",
"r  c #6A431D",
"t  c #714A1F",
"y  c #5A4529",
"u  c #4D4237",
"i  c #574637",
"p  c #5F503A",
"a  c #664423",
"s  c #6B4323",
"d  c #6C4B24",
"f  c #63432A",
"g  c #6C442A",
"h  c #644B28",
"j  c #6C4B2B",
"k  c #724924",
"l  c #72442A",
"z  c #774928",
"x  c #724C2C",
"c  c #6B522C",
"v  c #74532B",
"b  c #7B542D",
"n  c #79572C",
"m  c #694A34",
"M  c #734D32",
"N  c #7B4D34",
"B  c #6C5333",
"V  c #685437",
"C  c #745332",
"Z  c #7A5533",
"A  c #7C5A33",
"S  c #765738",
"D  c #755B3B",
"F  c #7C5C3B",
"G  c #6E6135",
"H  c #7A643C",
"J  c #5B4E42",
"K  c #675646",
"L  c #6C534E",
"P  c #785B43",
"I  c #7A6545",
"U  c #766655",
"Y  c #736952",
"T  c #7C6962",
"R  c #81572D",
"E  c #864C32",
"W  c #825534",
"Q  c #845D33",
"!  c #895638",
"~  c #825D3B",
"^  c #8A5C3B",
"/  c #96573B",
"(  c #846135",
")  c #8B6334",
"_  c #87663C",
"`  c #8C633C",
"'  c #936A36",
"]  c #92653B",
"[  c #946B3B",
"{  c #9A6D3C",
"}  c #98723B",
"|  c #9C733D",
" . c #A1763D",
".. c #875B43",
"X. c #9A5D42",
"o. c #A15E44",
"O. c #886846",
"+. c #966747",
"@. c #9A6E43",
"#. c #9C6C4B",
"$. c #89744C",
"%. c #9D7441",
"&. c #98744A",
"*. c #846D55",
"=. c #9C6E53",
"-. c #897957",
";. c #997855",
":. c #937C5C",
">. c #A56849",
",. c #A17543",
"<. c #A57B43",
"1. c #A6784B",
"2. c #A97D4A",
"3. c #A96E53",
"4. c #A57552",
"5. c #A77B57",
"6. c #AB7C54",
"7. c #B27A57",
"8. c #897867",
"9. c #957A63",
"0. c #897773",
"q. c #8C7C76",
"w. c #AE7F64",
"e. c #8F805A",
"r. c #95825D",
"t. c #AA8247",
"y. c #AC834B",
"u. c #B4884D",
"i. c #AD8352",
"p. c #A6845A",
"a. c #B58A53",
"s. c #B78858",
"d. c #B58B5B",
"f. c #BC9155",
"g. c #BD935B",
"h. c #9C8563",
"j. c #988768",
"k. c #978D74",
"l. c #988975",
"z. c #A78769",
"x. c #B98964",
"c. c #A7926D",
"v. c #BD9362",
"b. c #B99568",
"n. c #B18E72",
"m. c #A89778",
"M. c #B79876",
"N. c #ACA17D",
"B. c #B3A27E",
"V. c #C3965B",
"C. c #C48D69",
"Z. c #C29563",
"A. c #C49B63",
"S. c #CA9C65",
"D. c #C4946B",
"F. c #CC926F",
"G. c #C69C6A",
"H. c #CA9C6C",
"J. c #C69977",
"K. c #CA9C74",
"L. c #D19977",
"P. c #CAA264",
"I. c #CDA36C",
"U. c #D1A669",
"Y. c #CAA376",
"T. c #D3A473",
"R. c #D4AA75",
"E. c #D7A87A",
"W. c #D5AB7D",
"Q. c #DDB07C",
"!. c #E1AF7D",
"~. c #958985",
"^. c #9E9690",
"/. c #A18E8A",
"(. c #A79988",
"). c #B39B83",
"_. c #A89B95",
"`. c #ACA187",
"'. c #B4A383",
"]. c #B5A789",
"[. c #BBAD8B",
"{. c #BCB18E",
"}. c #ACA398",
"|. c #B6AA98",
" X c #BDB394",
".X c #BDB39C",
"XX c #B7ABA4",
"oX c #BAACA3",
"OX c #BEB2A2",
"+X c #BDB2AA",
"@X c #D19A82",
"#X c #CDAD8E",
"$X c #DBAD83",
"%X c #D8A885",
"&X c #DCB285",
"*X c #C3B698",
"=X c #E4B589",
"-X c #E8B28F",
";X c #E4BA8C",
":X c #E9BC95",
">X c #C2B4A5",
",X c #C6BBA3",
"<X c #C3B6AB",
"1X c #C5B9AC",
"2X c #C9BBAE",
"3X c #C7BDB1",
"4X c #CBBEB2",
"5X c #D0BEB3",
"6X c #F2C68D",
"7X c #EBC294",
"8X c #F6C799",
"9X c #CDC2A9",
"0X c #D5C8AB",
"qX c #D4C9AC",
"wX c #CCC2B4",
"eX c #CEC4B9",
"rX c #D4C8B7",
"tX c #DACEB2",
"yX c #D6CBBB",
"uX c #DDD1B5",
"iX c #D7D1BC",
"pX c #DCD3BD",
"aX c #EBC9A4",
"sX c #FACBA4",
"dX c #FCD4AA",
"fX c #E4D7BA",
"gX c #F0D6B0",
"hX c #FCDBB7",
"jX c #DDD5C1",
"kX c #DED8C2",
"lX c #E3DAC4",
"zX c #EADDC4",
"xX c #E4DCC9",
"cX c #E2DFD3",
"vX c #EAE1C8",
"bX c #EAE2CC",
"nX c #F8E6C9",
"mX c #ECE4D3",
"MX c #EBE8D7",
"NX c #F5EBD6",
"BX c #F4EDDB",
"VX c #EEF0DC",
"CX c #F6F1DE",
"ZX c #FBF2DD",
"AX c #F1EEE2",
"SX c #FBF4E3",
"DX c #F8F6E5",
"FX c #FCFBEC",
"GX c #FDFEF2",
"HX c #FEFFF9",
"JX c #FEFEFB",
/* pixels */
"GXFXDXGXHXJXJXJXJXJXHXHXHXHXHXHXGXGXFXFXFXGXZXZXZXVXnXnXvXnXvXvXvXvXvXfXfXfXfXuXtXnXbXmXmXbXmXxXlXlXlXjXjXxXkXxXbXwX9XVXMXeXvXkX",
"GXGXMXGXHXHXHXHXHXHXHXHXHXHXHXHXHXFXFXGXFXVXZXSXVXNXNXvXvXfXvXvXfXfXuXtXfXtXuXfXNXBXBXNXNXzXzXlXlXjXjXjXjXbXbXxXiX|..XMXMXMXbXiX",
"GXFXMXGXHXHXHXFXGXFXGXGXGXFXFXFXDXFXDXDXZXNXvXvXvXfXtXqXqXqX*X*XfXfXfXuXfXtXfXVXBXNXBXBXmXmXxXjXjXjXjXyXyXkXbXjXiX,X`.mXMXcXbXkX",
"DXDXcXHXHXHXFXFXFXFXFXFXGXFXDXDXVXMXxXpXfXtXfXfXfXqXvXnXgXuXfXvX9XqXqXqXqXqXqXNXSXZXZXBXNXmXjXrXjXlXyXrXjXiXkXyXrXOX}.|.MXcXbXjX",
"DXkXDXFXHXGXFXCXMXDXAXAXCXDXSXDXMXbXDXcXxXzXyXfXqX*X*XqXqXtXqXuXtX{.qXfXqX{.B.ZXSXSXZXBXNXzXtXwXjXjXpX5XqXpXyX9XOX.Xk.|.mXjXjXXX",
"DX9XvXVXGXHXHXGXAXMXDXFXbXGXHXFXmXDXDXFXBXZXbXSXZXtX{.N.{.{.{.qX9X{.[.qXfXtX*XZXZXSXZXBXBXlXrXwX>XjXuXqX*X*X4X*X|.|.k.1XwX3Xk.oX",
"DXFXGXHXHXJXJXHXHXGXGXFXHXHXHXHXGXDXGXFX,X.XzXyX9XfX{.{.{.{.{.{.*X{.N.{.tXqXfXZXZXSXSXBXbXwX*XrXuXyX4X,X,X*X|.`.m.`.k.(.+XOXq.e.",
"HXAXFXFXFXAXFXDXBXMXjXiXbXAXFXDXFXHXVXOX*XtX9X9X9XtX{.qX{.B.B.B.{.{.{.N. X*XnXCXZXSXSXMX9Xm.|.pXyX,X*X*X).`.m.m.j.k.l.j.`.Y y 6 ",
"GXFXSXFXMXXXU K J u J J 8 J % U _.}.eXmXSX9X X X*X X*X'.{.{.B.B.B.{.{.N.`.,XbXDXZXSXZXm.qX{.fXrXOXm.(.e.-.I p q y y y $ @ $ q y ",
"HXFXSX4XY u K 8 u % $ $ J % % 8 8 8 8 8 iX[.N. X,X X*X[.].[.N.B.B.{.N.{.c.iXMXZXDXSXvXY 9XqX).D h c C n C n G v y y + @ > > y V ",
"HXNXU K 8 J i 8 u @ % u @ % @ 8 X @ % O % qXm.B. X*X[.[.*Xm.c.m.N.B.N.{.e.rXVXZXCXNX'.I $.e.p.d.y.t.%._ H n n G c v d q > y V I ",
"_.6 K 8 8 J # O u % $ J 8 %     O $ O $ @ # k.N.].{.*X[.B.c.m.c.B.N.N.{.-.9XZXMXMX,Xp.v.g.g.f.u.t.t.| [ ( n n t c ( t.t.} } } _ ",
"$ K i 6 % i % # J 6 K 6 %   O @ # $ # # $ # p '.'.m.M.).z.m.c.c.c.b.N.*Xe.uXZXbX;Xb.P.P.V.f.f.u.t.<.| [ ) n e n u.t.t.t.| } } ' ",
"$ 8.I $ X J # O U # O # J O J u @ X $ @ @ O @ l.`.c.c.j.c.'.B.c.c.c.N.B.Y vXNXb.b.U.U.P.V.f.f.f.t.&.[ ) n t R t.t.t.t.t.t.} } ' ",
"i V 6 y # 8.6 6 u 6 6 6 6 ; 6 1 > ; # @ O O O 9.).j.j.).].M.z.:.r.r.c.N.'.nXv.A.P.P.P.b.V.f.a.t. .' ) k t q } t.t.t.t. . . .} ' ",
"p > > $ y i 7 m D C S N F ! Z M Z g f > @ O O $ ).M.k.e.-.h.B.'.r.-.r.e.uXd.f.I.U.P.V.f.f.f.t.| { [ R n [ }  . . . . .t. .| } } ",
"> y B ;.;.$.w.M.J.K.K.D.K.C.2.^ ..N C m 6 ; O   *.h.j.).#X[.'.h.r.-.e.*.b.V.P.U.A.g.V.f.a.1.1.<.{ [ } { } | |  .,.<.<.<. .| { { ",
"y H O.G.aXhXnXnXnXsX=X$X=XF.C.>.^ Q M l 1 # @   + x $.$.O.:.j.:.;.$.-.b.V.V.V.P.V.f.i.y.y.t.t.,. . .| | | | %.| | } | | |  . . .",
"c.b.;XhXnXZXZXZXnXhX:X%X-X%XC.>.] ! C g 9 1 # . . 5 g k j x x S P O.;.n.V.f.V.V.V.u.y.1.,.%.} } @.} [ ' [ [ ' } { { { { } ' { <.",
";.%XsXdXhXnXnXnXnXdXsX$X=X%XF.3.^ %.Z d 9 0 7 O . 1 s r 5 r s w a s j b 6.f.d.a.y.%.@.' _ ( _ ( H ( _ F A Z n n ) ) ' ' ' ' ' ' ",
"r.6XdXdXdXhXnXnXnXsXsX-X-X$X@XF.7.5.M 9 a s a ; . ; s w 5 d s k x x C W Z b b b v v A n A F ~ F ( A A A A n v v A n n ) ) ` ' [ ",
"I &X6XsXdXdXhXhXzXsXsXsX-X:X:XJ.;.7 6 y s w s g + & l s * 1 5 s 0 k k b b R b b A C n C j v n n A C n v v v v d v d d n Q ( ( ( ",
"H ;.8X8X8XdXhXnXnXsX8XsXsX-XM.a ; f N 0 0 0 a g 7 o 0 = : - 4 e k z b Z b W W ^ ` Q ~ n v n b R A A v d v c d d d d d c t c v n ",
"&Xk I.8XdXhXhXnXnXdX:X$X:X%X=.N 7 > X m m Z N x a o a 9 * < 5 r k z z W ^ ` ] { ] ] ] ' ( ( b R A A ( A v t e e e t d w d e d d ",
"&X6Xb 6XY.z.:.+.m *.7.L.K.x.O.f ; 9.=.X.l +.=.E g 0 5 4 & 7 4 5 l k N W ^ { @.{ { ] { { { { ' ) ) ) Q R z z t r q q w w e r w w ",
"6X6X7Xd.L.%X@Xn.7 9 #.J.-X-X` ~ S 5.w.5.7.w...z k d r < < : < 3 k k M ! ^ { >.,. .{ { ,.u.2. . .| | ' Q R t 0 t e e 5 3 w e e w ",
"6X6X6X-X:X$XF.-X#Xz.x.&XdXhX%X! ^ 7.C.C.C.w...M l l s - < & < 1 5 0 E W +.>.,.1.>.{  .<.a.s.a.t.y.| ) Q R t t 3 w 3 3 3 3 w 3 w ",
"8X6X8X;X>.sXsX:X@Xz.;XhXdXhXsX/ E 4.N =.4.X.E N 0 s s < < o : 4 4 k z W ^ #.,.6.2.,.7.u.s.V.V.V.f.u.{ R R r r 5 w q e 3 3 3 3 3 ",
";X6X=X!.Q.C.:X8XsXsXhXhXdXsXhXw.+.x.+.0 0 0 0 N l 0 0 4 < * * 4 5 0 l W +.>.4.d.s.7.V.V.V.a.a.u.f.u.t.) b t 5 e 3 w w 3 - 3 3 3 ",
"R.=X!.!.!.T.!.-XsXsXsXL.-XdXgXsXC.N l < 9 9 9 0 N 5 4 2 = = o < 4 5 0 N ^ @.7.x.Z.Z.Z.Z.S.V.V.u.t.u.<.) R k e e w w 5 w w 3 3 3 ",
"R.E.Q.!.T.E.L.E.-X-XL.E @X-X:X@X3.5 0 9 7 & m M x 0 4 = 2 = & < 4 4 s l ^ &.x.Y.H.H.U.T.U.V.V.V.u.<. .' n k r e w a a w w 3 3 3 ",
"P.R.T.T.T.S.F.F.F.J.J.F.@X%X#X@X4.=.N ..< 0 0 0 s 5 < < 2 = & = = 2 4 x #.7.D.F.F.!.=X=X!.U.P.V.u.2.| ' R z s e r w w w e e - 3 ",
"a.g.H.H.H.F.C.C.x.x.K.x.....@Xo./.3.X.o.X.0 0 9 0 < 2 2 2 = & : : 2 9 N 4.x.C.F.E.;X7X;X&XR.P.f.f.t.} [ R t t 3 r t a a d a w q ",
"Q @.p.d.x.s.7.s.7.7.d.7.7.w.@XL.@XF.3.0 0 0 P 0 5 4 4 4 2 = = & : 4 g #.x.x.D.K.$X7X8X:X&XR.U.A.u.t.} _ R v t 3 r r d a s a w q ",
"` ~ C W %.1.6.6.1.7.7.7.7.x.x.J.F.w.*...z.9.P 0 0 4 4 0 4 = = 2 : 0 N 3.C.C.H.E.&X7X7X7X;XW.R.g.f.t.} } ) v c w w a d h j a w , ",
"( C j 9 9 M O.&.6.>.7.3.7.7.7.x.n.@XL.w.w...0 0 0 0 0 0 0 2 4 0 0 l ^ 5.Z.D.K.$X7X7X&X7X7XW.Y.g.b.u.| [ R v k e r a j x j h q * ",
"A C m f 1 y y a O.=.3.4.7.7.3.7.3.3.o.......0 0 l 0 N l l z 0 0 l N +.s.Z.H.L.=X&X;X=X7X:XM.m.-.e.} %.( n n d d d w h h a a ; + ",
"M j g f 7 y y > 7 m ..+.=.3.>.1.3.3.o.o.o.o.X.E E E ! / E E / E E ..4.C.F.T.E.!.;X;X7X7Xm.l.j.j.-.r.S A b v t h w e d c q 6 o > ",
"f y > 7 6 y p J L U T *...+.+.+.o.X.o.o.o.o./ / / / / X./ / / X.X.=.x.D.L.R.!.=X=X;X;X:Xm.(.k.c.h.p.n V C Z x d t h d w o X $ h ",
"; > 6 7 p K Y 0.T l.~.~.~.0.....+.X.X.X.X.o./ / E ! / X.X./ / X.>.4.s.D.E.E.Q.U.&X=X;X#X[.n.Y.r.;.r.%.H y M x d t c h h X % q c ",
"6 i K L U 8.0.~.~.(._._._._.^.l.L L ..E ..X.E E ..0 ..3.o.o.X.o.4.3.i.F.K.E.E.Q.Q.Q.=XQ.$X%XY.p.I I V c D 7 1 j h t w w 1 y y c ",
"L U 8.q.l.~._._.}.XXXX+X+X+XXX}.}._.0.L L 9 L 9 N 0 9 0 +.+.+.=.4.4.6.s.H.T.T.R.I.R.R.R.R.R.B.$.$.} ;.O.H D B x d d h e h y y V ",
"l.DXDXmX(._.}.}.XXXXoXXXXX+XXX|._./.~.q.*.J 7 9 0 m 9 9 9 ..o.o.#.>.4.5.x.H.Z.Y.G.Y.I.P.I.R.G.G.f.y.,.@.) Q n b v v c d d y V G ",
"AXJXHXGXNXZXwXOX>X1X<X<X+X4X2X1X<X<XoXoXXX_._./.0.L 6 ; 8 ; L X.+.+.+.#.4.6.V.D.V.G.P.P.I.G.A.g.a.t.2.%.{ ) ' ` ( n n t d h G V ",
"FXHXGXFXDXZXvX[. XrX4XjXyXyXyXyXyXrX5X5X<X<X<X>XoXoX/././.q.0.L P ............z.x.g.v.A.v.A.A.g.a.a.i.y.2.<.,.' ' ) n v x h c V ",
"FXGXFXFXFXqXfXM.m.#X,XqX5XyXyX5X5X5X5X5X5X4X<X>X>X>X>X>XXX|.}./.q.L 9 m m K m m f O.y.a.v.A.A.V.V.Z.f.d.s.i.y.%.| ) n v h d c H ",
"ZXZXSXZXh.( *XfX].c.'.>X}.2X<X2X2X<X<X2X2X5X5X5X5X<X<X<X<X>XoX|.}._./.~.q.0.L u 6 6 b.H.I.I.I.Y.I.Y.H.I.A.g.a.2. .' R v d v c B ",
"fXfXvX[._ O.:.0XfXm.h.).).#X>X|.>X>X>X>X>X<X<X<X2X5X2X2X2X<X<X<XoXXXXXXXXXXX^.^._.l.K.Y.R.R.Y.E.Q.$XW.T.I.v.a.2.%.' W Z d j v B ",
"z.*Xz.O.#XM.M.m.fX:X:.h.:.f ).).(._.|.|.*X<X<X<X1X<X2X2X2X4X2X4X3X<X4X<XXX+X+X+X_.(.J.G.Y.W.W.W.&X&X$X%XG.G.s.y.| ' ^ b v k x D ",
"f + I J.M.@XJ.J.n.M.5.&.v x ~ P m.(.).}.|.|.oX>X1X2X2X<X2X4XwXrX4X4XeX4XwX+X+X3X<X|.M.K.D.Y.R.W.$X$X%XW.G.v.d.1.{ ] ` Z v j j D ",
"$.; $.#.W +.;.5.x.@XJ.5.^ k z N M j.m.l.(.}..X>X<X2X,XwX2X2XwXeX5XjX+XeXjX<XwX+X+X<XM.J.G.G.Y.R.%X$XW.Y.I.v.d.y.%.{ ^ Z M M C D ",
"c.z.:.w.5.;.=.+.p.s.z.&.W x l l k m 9.j.m.(.}.|.*X>X<X2X3X2X3X2X4X4XjX4X2XeXeXeX9XOX).b.D.b.Y.Y.Y.W.W.Y.Y.v.d.y.1.| ] ` A j S D ",
"*X>X.XtXh.V A &.=.4.#.O.Z l s k s s f :.j.l.m._.|.oXoX>X>X1X1X1X<X4X4X4X3X3XwXeXjXjX).n.d.b.K.Y.Y.Y.W.J.b.Z.a.y.%.| +.~ F Z C I ",
"].,XrXqXc.B h A Z F N g s l j s r l 0 a *.:.q.m._.}.|..XOXOX>X<X<X<X3X+X3X3X+X1X+X3X3Xz.x.d.d.v.A.K.K.K.b.v.d.i.,.' ( ( A b S D ",
"'.*X,XB c O.N.H a d s a 0 s d r s r s k j m P *.z.(.|.}.|.OXOXOX<X<X+X+X>X1X<X<X1X1X1X>X9.y.i.d.v.v.A.H.D.v.d.i.,.@.( A A v P B ",
"e.{.m.I H j.*X*XH g 5 1 < 1 a w 5 t 0 k N C z W +.~ F O.I O.$.O.O.*.8.j.h.9.:.:.&.$.=.&.%.' ) R 1.i.v.x.D.d.a.y.&.@.A n v C D V ",
"$.m.G {.,X{.,X Xj., , , , 1 , , q q 3 r z N Z M ~ &.&._ _ O.O.` $._ O.O.@.%.t.r.i.1.5.,.2.%.;.,.@.R ) d.x.d.y.%.} ( n v C n P p ",
"G p e.{.{.,XtXB.y * , , , , , , - q 3 d x N 5 j Z H +.O.H ( _ $.~ F _ &.;.r.p.p.r.5.p.;.y.p.5.1.2.&.] W Q b.i.%.' H H x B v B c ",
"G G j.N. X Xk.e.O.* * * * * * * * , q , < 1 j x M Z b v A ` O.( _ O.O.+.$.;.r.;.5.:.:.p.p.z.i.p.6.6.1.#._ +.&.[ Q A A x B S D V ",
"y m.N.k.j.j.$.e.$.> + + + * * + * + * * < w g 9 f j C S F ( F ( O._ O.O.+.&.;.$.-.9.9.z.:.5.;.p.p.5.;.&.O.O.` ( n n v c C n V m ",
"j.e.e.G G e.e.e.Y +   X X o > H I -.I + ; 1 1 1 y 9 a g C C S F S F F ~ O.O.D I P U *.I O.*.*.O.&.+.O.` ~ Z A A C C j m m C B y ",
"-.-.-.e.e.e.e.e._ h c c w q q h c G I -.$.:.I ; 1 7 9 g f M M M C Z S A D F M i m i H P P P P D F ~ A Z v v v d v v j M j c C y ",
"e.e.e.e.e.e.-.e.c q c + q q c D I I I -.j.`.}. X.X.X(.*.m m S K V V M V D C D B i i K y H P p h S C M j d d d d d d a j h x m # ",
"-.-.e.e.-.-.$.G y + q c c n G O.*.j.m.(.]..X9X9XtXpXpXlXzXmXmXMXMXVXNXmXxX0Xm.*.P m m y B i f i 7 c j d w w w w q y a w f m 7 8."
};
