/* XPM */
static char *_969bc3d3bee4e0986b374a2654f64dc9TRIqVU39qlJOrIn[] = {
/* columns rows colors chars-per-pixel */
"64 64 248 2 ",
"   c #060405",
".  c #0A0606",
"X  c #0A0906",
"o  c #0A0708",
"O  c #0D0C0C",
"+  c #170806",
"@  c #130C06",
"#  c #130E0E",
"$  c #1A0E0D",
"%  c #0E1107",
"&  c #0E110D",
"*  c #1B1007",
"=  c #12110F",
"-  c #1B120D",
";  c #0E0F11",
":  c #120F10",
">  c #190E12",
",  c #0F1310",
"<  c #141111",
"1  c #1A1412",
"2  c #220D09",
"3  c #22150E",
"4  c #21190F",
"5  c #251915",
"6  c #2B1E14",
"7  c #361E1B",
"8  c #29221A",
"9  c #32231C",
"0  c #3C231D",
"q  c #2E2723",
"w  c #362C26",
"e  c #3C2C24",
"r  c #3D342A",
"t  c #3C3532",
"y  c #442824",
"u  c #453729",
"i  c #45342A",
"p  c #4D3A2E",
"a  c #56372E",
"s  c #453934",
"d  c #4C3C32",
"f  c #523E34",
"g  c #593E3A",
"h  c #693B2A",
"j  c #663D36",
"k  c #4D413A",
"l  c #544336",
"z  c #574739",
"x  c #55453B",
"c  c #5A463A",
"v  c #5C4A3C",
"b  c #6A443D",
"n  c #614B3E",
"m  c #734538",
"M  c #61563F",
"N  c #4D4240",
"B  c #574547",
"V  c #554B43",
"C  c #5B4C42",
"Z  c #5B5045",
"A  c #614E42",
"S  c #6D4B48",
"D  c #744A46",
"F  c #645344",
"G  c #6A5546",
"H  c #64554A",
"J  c #64594C",
"K  c #6C5948",
"L  c #6D5B4C",
"P  c #755545",
"I  c #715D4E",
"U  c #665C54",
"Y  c #6E5C51",
"T  c #725E51",
"R  c #715E58",
"E  c #72624D",
"W  c #79634F",
"Q  c #6D6157",
"!  c #746253",
"~  c #7A6554",
"^  c #7C6954",
"/  c #74645A",
"(  c #786858",
")  c #7C6B5B",
"_  c #7E705E",
"`  c #776B64",
"'  c #7C6E62",
"]  c #824742",
"[  c #85534C",
"{  c #96574D",
"}  c #865B56",
"|  c #965956",
" . c #A55B49",
".. c #A65E54",
"X. c #826C55",
"o. c #8C6B57",
"O. c #826D5C",
"+. c #996459",
"@. c #85715C",
"#. c #8A765C",
"$. c #8C745D",
"%. c #92755B",
"&. c #93795C",
"*. c #A86557",
"=. c #B66559",
"-. c #B46B5D",
";. c #836E63",
":. c #857361",
">. c #8B7562",
",. c #8D7A64",
"<. c #89766A",
"1. c #8D7B6B",
"2. c #937C64",
"3. c #9B7E62",
"4. c #93716A",
"5. c #957568",
"6. c #937D6A",
"7. c #9B7E6A",
"8. c #AB6C63",
"9. c #B66D63",
"0. c #A77868",
"q. c #B77567",
"w. c #B07C71",
"e. c #C76C5C",
"r. c #CB705D",
"t. c #D5715D",
"y. c #C66E63",
"u. c #C67263",
"i. c #CA7666",
"p. c #D37564",
"a. c #DC7564",
"s. c #D77967",
"d. c #D1766E",
"f. c #D47C69",
"g. c #DD7C6A",
"h. c #E37663",
"j. c #E47A66",
"k. c #ED7B66",
"l. c #E47D6A",
"z. c #ED7B69",
"x. c #F57B69",
"c. c #F37D6B",
"v. c #F47D71",
"b. c #95826C",
"n. c #9B8368",
"m. c #9C846C",
"M. c #8D857A",
"N. c #958475",
"B. c #9D8472",
"V. c #9E8972",
"C. c #A48466",
"Z. c #A2856C",
"A. c #A58B6E",
"S. c #AB8A6D",
"D. c #BA816A",
"F. c #B18D6F",
"G. c #B6916E",
"H. c #A68776",
"J. c #A58B74",
"K. c #AB8D72",
"L. c #A38D7B",
"P. c #B28E71",
"I. c #BB8C7A",
"U. c #AC9173",
"Y. c #AC927B",
"T. c #A8967C",
"R. c #B39274",
"E. c #BB9474",
"W. c #B3947B",
"Q. c #BB967A",
"!. c #B89978",
"~. c #BD997A",
"^. c #CA846B",
"/. c #D7866C",
"(. c #C98979",
"). c #DB8A73",
"_. c #C29876",
"`. c #C39B7B",
"'. c #CB9D7C",
"]. c #D49A7D",
"[. c #E5826D",
"{. c #EB826C",
"}. c #F4816D",
"|. c #F8826D",
" X c #EA8873",
".X c #F88572",
"XX c #C7A17E",
"oX c #CCA17E",
"OX c #D2A27E",
"+X c #A78D83",
"@X c #AA9483",
"#X c #B29681",
"$X c #B49A83",
"%X c #BB9C83",
"&X c #B59C8B",
"*X c #B89391",
"=X c #BCA185",
"-X c #BCA28B",
";X c #BDA591",
":X c #C59B86",
">X c #CB9E82",
",X c #D39688",
"<X c #EF9A83",
"1X c #C4A284",
"2X c #CEA383",
"3X c #C2A58E",
"4X c #CCA889",
"5X c #D3A483",
"6X c #DAA584",
"7X c #D5AA86",
"8X c #DDAB85",
"9X c #D4A68A",
"0X c #D4AB8A",
"qX c #DBAC8B",
"wX c #D5B28E",
"eX c #DCB18D",
"rX c #C3A794",
"tX c #D7AA97",
"yX c #CAB297",
"uX c #DAB397",
"iX c #E2AD85",
"pX c #E2AD8C",
"aX c #E8B285",
"sX c #E3B38C",
"dX c #F1A791",
"fX c #E4B493",
"gX c #ECBC94",
"hX c #E7B998",
"jX c #F2BD96",
"kX c #D7B4A5",
"lX c #E8BCA5",
"zX c #F2B0A4",
"xX c #ECC09B",
"cX c #F7C59C",
"vX c #DCC0A8",
"bX c #F3C9A6",
"nX c #FCC9A7",
"mX c #FBCCA4",
"MX c #F5CDAA",
"NX c #F0C9AD",
"BX c #FDD3AB",
"VX c #FAD4AA",
"CX c #FCD6B7",
"ZX c #FCDAB3",
"AX c #FCE1BC",
"SX c #FEE6C8",
"DX c #FEEDCA",
"FX c #FDF1CD",
/* pixels */
"O ; O : < O ; O O ; & O O % o O : O : ; < # $ % = $ $ $ = = @ # o < O : # : o o o O o o o o . . + + o o .   . . . .             ",
"# O O : : ; : # ; O O % O @ O O > 2 $ @ % X @ * * 2 0 0 7 7 2 3 +   O o . o   o o # : # o : . + o o . . . . .   o o         o   ",
"O ; ; : ; < < O O O O % # y h m j h D j a b o.| %.+.+.| | [ D P j + O o o # ; O O O O O : : o O . . . . . . O o . o         o o ",
"# : : : < < ; # ; ; & & $ 4.*.*...{ { +.*.8.9.q.-.-.9.9.9.9.(.+.} 4.+ : , : ; : # & ; ; : # O . o + . . . . O O .           o o ",
": < 1 < < : ; O # : & = > B [ ] ] *.8.8.9.y.i.s.g.p.r.r.u.-.-.(.8.+X9 : < < , ; < O O O O & O @ . .   . . . + O o .           o ",
": # # # < < = = = = < : # $ 2 j | *.8.9.y.t.a.l.p.p.p.r.a./. .9.8.+X+X> < , ; ; ; & ; & & O O X o . + . O . . . X             O ",
"# 1 # > # = = = = = : 1 : 1 y +.....=.i.a.h.j.f. .^.j.h.h./.).9.(.w.w.> = O ; O O ; : O O ; O O O @ o O + o O O o X         o ; ",
": # # # < = = < < = : < 1 1 | | +.q.<Xp.a.h.j. X .[.a.j./.a.a.p.y.,X7.6 @ ; O ; O ; O & ; O O O O X . o O + O . O X         o o ",
": $ # > : , < , & = < # - ` | *...u.t.h.h.c.z.z.x.|.}.j.k.l.l.s.d.d.+Xa * = & O & O < O O ; & = O O o o O O o & O X X       X   ",
"< # < : < < < < < < < & - [ { | =.e.a.h.x.c.}..X}.x.{.k.k.j. Xf.d.d.,X*X1 = = & O O ; & O ; O O o o : O O O O O & O   X X     X ",
"$ : : > : < < < < < < < e } | *.*. .l.j.c.c.}..X<X X}.c.c.l.l.[.f.d.9.S = = < & < O O O O & O & O o O O O O O O O O   o   X X X ",
"$ : : : < < < < < < < < f { ..=. . .h.k.c.|.}..XdXdXv.|.x.l.a. Xi.i.8.} - < < = & < & ; < O ; ; O O O # O O O ; O o   X X   X X ",
"< $ < # < < < < < < < < g | ....r.e.j.k.x.|.|.}. X}.|.|.}.j. X Xf.u.9.*X$ : = = < ; & O < O ; O ; O O ; ; o O O O O X   X X   X ",
"# : # > < < < < < < < < g |  .=.=.a.j.x.x.|.|.|..X.X|..Xc.{./.].p.i.8.S $ # = = = < ; O O ; O & ; & O # ; o o ; & O   & X & X X ",
": : = $ < & < < < , > < g +...=.e.t.{. X|.}. X{.j.[.|.}.}.}.}.j.p.y.-.S = = = = & = = & & & O O ; & o O o o o & O   o o o o   o ",
"$ - : : < < , < < , : : y |  ...-.(.D.^.].).^.^.*.5X/.[.{.{.{.a.p.y.d.y = = = < < < = = < = < ; O ; o o ; o ; & O O o , o o   X ",
": # : $ < < = = = < < < w [ { +.W.kXNXCXCXZXZXCXSXDXCXtX(.q.dX).p.y.9.j = = < # = = = = = = < & O O O O O O O ; O o o & O O o o ",
"= > : $ = = # = = < < < 6 P 6.( Z / @XyXCXnXVXxX#.J U M.<.B.,Xq.e.y.9.[ - < < 1 < > = = < < ; < ; O O O O # O ; O O O O O o O O ",
"# # : : : # > = = < = < $ R R F / U V / &XMXcX0XY.1.' M.@XY.rX:X0.0.0.j $ = : # = $ > = = # = = < O ; O O ; O : o o O ; : o O o ",
"$ < $ < $ < $ # < ; = @ # U ;.! Z U ` <.5.hXZXeXS.&X! ;.( Y.:X~.Z.D *.m $ > 1 : # < # # < # < = = & O ; ; O ; O o O O O O o : o ",
"# < # = < # = $ $ < < = < V ) E ( N.+X;X$.tXCXfXE.W.%XtX4XqX2X!.T.O.h m $ # # $ # # $ < > # = = = & O & O < ; O o o O O O O o # ",
"# < $ > # > : : # : : # < q :.,.#.B.@X$X0.4XBXcXeX`.`.5XhXxXqX~.&.>.%XG 1 # # # > = : # # < = = = = ; & < ; O O O o O O O O o o ",
"# # = # # # - : = > $ @ = 1 O.H.Y.Q.2X:XS.eXcXcXBXBXnXjXnXnXgXoX0.>.vXm.$ = 1 : 1 # $ < < # = = = = ; , ; < & ; ; : : ; O O o # ",
"O # ; < < = < = < # : = < = ` Y.4X0XpXoXS.cXBXcXcXBXCXmXBXBXxX`.m.<.uXl 1 > : $ : : $ : - = = = < = < = < & & & o o o : O : o O ",
"O ; < < = = = = ; = = 1 1 < / m.1XeXfX_.S.bXBXcXcXmXmXnXBXmXhXQ.J.@.>.u @ : : $ > < > # < > < < , < , , & = < O # o O : O   o O ",
": O ; ; & = < = = = $ : < : Q ,.R.4X>XE.:XCXZXZXmXjXnXfXiXsX5XQ.B.' B.z 1 1 : 1 : 1 < 1 < - = < < < , 1 < < & O # # O o ; o o ; ",
"O ; & O O ; < ; < $ : # < < B ' Z.%X~.3.&.lXMXtX>XlXnXjXhXE.~.Q.m.) L.G = > < 1 1 : < 1 < < < < 1 1 < < < < & O > # ; # O O o : ",
"; O & ; O O < < < = # < < < w Q ,.Y.Q.W.2.%.:XuXlXhXhXkX=X%X$X$X1.) N.! 4 1 $ : : > 1 1 < 1 < = < , , < , < # & ; o ; ; ; O O O ",
"& O O ; O O < < < < = = & < 5 U ) b.W.-X$X%XkXtXlXlXrXJ.#XJ.Y.U.:.:.6._ C 8 - $ - > < < < < # > < < < < < < & & O O < O O O O O ",
"O < & ; O < < ; : & = = = = 1 k Q ) B.$X;X:X:XI.w.I.%X:X#XJ.J.b.) ,.<.^ ! ! l 3 * = = < , < 1 # - = , < < = O o O O ; & O O O O ",
"O ; & O ; ; < < < & < < = = < 8 Z H ! L O.0.(.dXzX,X:X#XH.2.>.@.$.L.@.~ O.2.@.) u - < 1 < < : 1 1 = = - < = = ; O & O ; ; ; ; ; ",
"O O O ; O O ; # ; # = = < & 1 1 w Z Q ' ,.H.,X:X:XI.:X@XZ.1.@.:.$XH.$.@.,.m.m.2.6.R r 1 1 < # 1 = 1 < < < # # O O ; ; O ; ; o ; ",
"; O O O & O ; O O O = & = = $ : 1 t V E :.>.O.L 7.;X$XV.b.X.) B.&Xm.6.%.B.V.V.V.m.2.@.! 9 $ @ = = = = 1 < < = O % # # # O O O O ",
"O & ; < ; O O O O O & < = < < 1 < 1 t V ) N.:.@.;XyX$XB.#.^ O.Y.$XJ.Y.2.b.m.Z.Z.J.S.m.2.:.F * - - = - < = = O O O # # : : O O : ",
"O & ; O O O & O O O = = = = # # < < @ V / 1.<.N.&X+XL.1.E @.7.J.6.$X$X2.%.m.J.S.Q.!.R.R.K.A.) $ - @ = = = = O O O = = = : : O : ",
"; ; & ; O ; ; O O = = = = < < # < < 1 r J Q T U <.1.<.! ~ >.2.m.m.-X&X2.>.m.H.E.`.oX2X~.!.U.J.E - 1 # - < & % O O = = = : O O O ",
"= = & O : O ; ; & O < < < = # = < < - r l x l d U R / R O.4.5.Z.m.-X3X$.$.Z.U._.OXOXoXXX~.!.J.6.d * @ < = = O O O # : : ; O O O ",
"= < = = O & & O O O O < < < & < < 1 e C v l d s B C T ~ X.;.n.3.J.-X3X#.X.J.!.:XoXoX`.~.R.U.U.m.:.u * = = = O O O = < # O : O o ",
"= = = & & O O < O O ; < < ; = = = 9 C Z A c c B A A T X.>.L.6.J.L.3X3Xo.X.m.A.U.~._.E.S.Z.n.7.5.b.,./ w - @ o O = = : O O : o O ",
"= = < = ; O ; O ; ; O O # = = = - s F n c n A c c n S T &X$.B.J.L.%XZ.X.X.$.T.S.U.K.S.C.C.Z.3.>.^ X.:.M.u @ X & = = : : ; O O O ",
"= = < ; ; < o O O O ; O < < & = 8 z l l l c S n v c G 6.O.7.7.n.T.m.n.2.2.m.$.#.&.&.$.2.K.S.S.n.&.@.#.2.:.e = @ = < = O ; O O O ",
"; < < < = < o # O O O O O ; & $ 9 x f l l c c F v ' ! K ~ O.2.L.n.&.C.P.7.O.$.&.C.m.C.C.P.P.P.S.A.n.:.^ 1.^ 8 = < < & < # O O O ",
"< ; < < : : O O < O O ; ; < < = w k l c v v n I ~ v F ~ X.2.m.2.^ 3.!.S.o.3.n.K.E.E.R.G.`.E.P.C.U.U.b.) 1.<.I $ < < ; ; : O o O ",
"< < ; : O ; O # O ; ; & & ; & $ w x v v n S n n v A L O.2.6.@.~ &.K.E.%.>.3.R._.oXoXoX`._.E.F.S.U.U.V.,.:.6.1.6 # < ; < O O o O ",
"< < < : O O ; O & O O o O ; = - s C F n G G P v v F ) ,.2.#.E @.m.R.P.o.n.A.~.OX8XiXOXOXOX'.F.S.R.R.B.,.O.b.6.v @ : ; ; O O   O ",
": < < : ; O O ; O O o o o O < < k A F n I I L v Z ~ :.6.2.O.X.n.J.!.S.%.n.G.4X8XiXaXaXOXOX].P.S.R.W.m.2.$.b.6.) + ; O ; O O   o ",
": : < # > : < : O O % = & O $ 5 V K F L I ! v A L O.,.,.2.@.#.n.U._.P.%.n.XX7XaXgXjXjXxX8XoXF.F.W.R.Z.2.@.V.2.:.- $ ; o : o   o ",
"> : $ : : < < O O X O O O o # t C Y G I T K v L ) :.,.,.b.#.#.A.!.1XS.%.Z.4XsXxXcXBXmXcXfXOXG.E.Q.P.n.n.>.J.3.#.s @ ; O : o o o ",
"# : : - < > < O o O O X O O @ s C Y Y ! ! n F ( O.2.b.@.,.#.,.R.`.2XR.#.A.0XgXcXmXAXSXVXsX].E.E.Q.R.Z.2.b.V.Z.2.H @ * O # <   o ",
"= $ # : : < < O X O X O X % O N U ! ! T T n I ( >.#.,.@.,.#.b.U.1X9XP.#.A.0XjXcXVXDXDXZXhX'.E._._.R.Z.2.n.T.T.n.( - X O o O   o ",
"= < < = < & = X X o O X X O 1 V L ! T ! F G ~ ^ >.1.,.:.@.@.6.W.oX0XR.$.T.wXxXmXAXFXDXVXsXoX_._.`.E.K.7.$X=XA.n.( - X O o o X X ",
"= = = = < & @ O X O X O X o 1 C L ! T T n L ( ) :.:.O.) W ! >.S.oX4XS.#.U.wXxXmXVXDXSXbXsXoX_.`.`.P.Z.3.3X=XU.$.) 4 @ X O X X X ",
"= = = = = & % O X X O X O X 1 Z L Y I I A T ) O.) O.^ ) G K @.n.XX4XJ.$.W.wXxXcXVXDXAXxXiX'.`.`.Q.P.U.n.;X=XV.,.) 5 $ o X X   X ",
"< = = = = = = O @ O X X X X 1 v F K L L v I ) ;.:.( ! ! F c K #.U.1XZ.%.W.eXcXcXZXAXVXeX6X'.'._.E.P.A.A.!.T.2.>.! 1 @ . X X   X ",
"= = & # O O O O O O O O X X = k C F L K c I ( :.>.) ! L Z u z W 7.#Xn.%.W.eXjXcXVXZXbXeX6X`._.`._.Q.J.W.T.V.#.~ Y @ O o o X   X ",
"U < # < < O O O O X . @ X X X r C F A G v F ( O.>.:.^ K v u u M $.K.2.2.W.qXsXxXcXMXeX0XoX_.'.'.`.`.K.V.V.#.! E Z @ @ O o . X X ",
"L.k - < < % O O X @ O + . O . 6 k z v M l z L O.O.:.O.! M a i p L 6.%.2.W.0XfXsXgXfX8XOX].'.oX2XXXXXU.^ E L L F C @ # O o o . o ",
"V.:.w o ; = X O O O . + . o . $ r k v v v l M I ) O.:.) E l p i G >.m.3.~.0XpXsXfXhXqXqX5XoX7X5XXX!.A.K M F J L C @ O O o .   o ",
"V._ ' d $ = = O O @ o . . . o   8 s c c c p l F T ~ ( ! I c u c :.H.W.~.oX9X8XpXgXnXMXVXxXeX5X2XXX!.b.K K J U L C $ # O o o     ",
"b.#.b.L.( + . : X . O O + . . . @ w u f f u l v J Y ! L A l v ^ A.`.9X6X8XpXqXsXbXSXFXZXMXeXoXoXXX!.b.E E E E E C 3 @ o o o   o ",
"=XW.J.T.L.3 @ O o o o o o o . . . $ w s p i p l C H A A l p ~ 2.G.7XfXfXsXsXsXiXhXMXMXNXjXqX'._.E.!.b.E Q ( E J C 8 O O o o   o ",
"1X%XR.Y.Y.2 # O $ o + + . + . . . . 1 w e i u u f x x d i x B.J.!.eXsXsXsXsXsX6X5X5X9XqXpX6X_.E.G.R.2.E ( ( ( E v q @ o o     o ",
"=X=XW.$XB.$ O O o . o O O o . + . . o 2 d c l e 0 e e e e ( n.U.!.wXsXsXsXiX6X5XOX'.'.9XuX,X`.E.P.K.2.( / _ ~ F z t @ o   o   o ",
"#XY.L.V.6.3 + # O O + . . . . . . o   . s A c e 9 9 9 6 w ' m.U.!.oX7X5XOXOX'.OX].'.'.5XuX>XQ.P.S.Z.>.( _ _ L C x k = O   ;   O "
};
