/* XPM */
static char *f0fe208f60ad4df4a1b044770edb0a2cNOWy4VueFjjSCIQf[] = {
/* columns rows colors chars-per-pixel */
"64 64 244 2 ",
"   c #2F120A",
".  c #291408",
"X  c #3C2716",
"o  c #3E2A16",
"O  c #4E160D",
"+  c #462B1A",
"@  c #572C1E",
"#  c #49341D",
"$  c #662A1C",
"%  c #7C371F",
"&  c #4B2F20",
"*  c #463323",
"=  c #4B3423",
"-  c #4B3826",
";  c #563827",
":  c #663828",
">  c #753727",
",  c #71362B",
"<  c #55442B",
"1  c #54432C",
"2  c #544532",
"3  c #5A4634",
"4  c #574937",
"5  c #5B4A35",
"6  c #584C36",
"7  c #5B4B3A",
"8  c #66412C",
"9  c #684735",
"0  c #644C35",
"q  c #624C3C",
"w  c #7A4535",
"e  c #764839",
"r  c #7A4B3B",
"t  c #62533E",
"y  c #6C533E",
"u  c #76513C",
"i  c #5F5644",
"p  c #6C4E41",
"a  c #794E41",
"s  c #6A5745",
"d  c #645A45",
"f  c #765848",
"g  c #6A624E",
"h  c #76644C",
"j  c #776954",
"k  c #7B6E5B",
"l  c #7D735E",
"z  c #7F6D61",
"x  c #7E7461",
"c  c #7E7962",
"v  c #863C2C",
"b  c #844839",
"n  c #93453B",
"m  c #86523D",
"M  c #8B4D41",
"N  c #884E4B",
"B  c #835445",
"V  c #8B5444",
"C  c #8B5A45",
"Z  c #84554A",
"A  c #87594A",
"S  c #8B5C4C",
"D  c #935746",
"F  c #92554A",
"G  c #945C4C",
"H  c #9A5E4D",
"J  c #875A51",
"K  c #8B5D52",
"L  c #965B52",
"P  c #9B5D54",
"I  c #9A5D58",
"U  c #A65D52",
"Y  c #8B624E",
"T  c #94624D",
"R  c #9B634D",
"E  c #8D6254",
"W  c #876A57",
"Q  c #946353",
"!  c #9B6454",
"~  c #956A55",
"^  c #9D6B55",
"/  c #93655A",
"(  c #9D645A",
")  c #956B5A",
"_  c #9C6D5B",
"`  c #82745D",
"'  c #8C795C",
"]  c #96765F",
"[  c #9E725E",
"{  c #A3694F",
"}  c #A36455",
"|  c #A26A54",
" . c #AB6854",
".. c #A3655C",
"X. c #A46C5B",
"o. c #AB6D5C",
"O. c #B16C5D",
"+. c #A4735C",
"@. c #AA755A",
"#. c #AB735D",
"$. c #B4755E",
"%. c #B8755E",
"&. c #B47B5E",
"*. c #BA7A5D",
"=. c #9B6D62",
"-. c #847663",
";. c #8D7764",
":. c #837965",
">. c #8B7C66",
",. c #867D6A",
"<. c #8A7D6B",
"1. c #9A7866",
"2. c #937E6A",
"3. c #A46B61",
"4. c #AB6C62",
"5. c #A37363",
"6. c #AC7362",
"7. c #A47A65",
"8. c #AC7B64",
"9. c #A47D6B",
"0. c #AB796B",
"q. c #B47563",
"w. c #B77666",
"e. c #B47B64",
"r. c #BA7A64",
"t. c #B6786B",
"y. c #B47C6B",
"u. c #BB7C6A",
"i. c #C3756B",
"p. c #C27E68",
"a. c #87806C",
"s. c #8C816D",
"d. c #928264",
"f. c #93846D",
"g. c #9B836D",
"h. c #96896E",
"j. c #9A896F",
"k. c #8E8472",
"l. c #948573",
"z. c #998672",
"x. c #968974",
"c. c #9B8B74",
"v. c #918379",
"b. c #968978",
"n. c #9A8C79",
"m. c #9E9077",
"M. c #9E927A",
"N. c #A4836E",
"B. c #AB846B",
"V. c #BB8266",
"C. c #B5836B",
"Z. c #B8856A",
"A. c #BB846B",
"S. c #A48572",
"D. c #AB8471",
"F. c #A38C74",
"G. c #AB8B75",
"H. c #A28D79",
"J. c #AE8D7B",
"K. c #BD8571",
"L. c #B58877",
"P. c #BC8B73",
"I. c #A3947C",
"U. c #A9937B",
"Y. c #B7927C",
"T. c #C38265",
"R. c #C4856C",
"E. c #C7896C",
"W. c #CC8B6D",
"Q. c #D18F6F",
"!. c #C38573",
"~. c #C48B73",
"^. c #CC8C72",
"/. c #C98A79",
"(. c #D18D74",
"). c #CC9274",
"_. c #C69379",
"`. c #CC937B",
"'. c #D39374",
"]. c #D2947B",
"[. c #D89778",
"{. c #D4997C",
"}. c #DC9B7C",
"|. c #E19E7E",
" X c #D8A07F",
".X c #9F9083",
"XX c #AA9982",
"oX c #BB9B85",
"OX c #B3A38A",
"+X c #BAAD96",
"@X c #BEB39D",
"#X c #BEB4A4",
"$X c #CA8E80",
"%X c #C99785",
"&X c #D49582",
"*X c #D59B83",
"=X c #DA9C84",
"-X c #D89B89",
";X c #E9978F",
":X c #E49B88",
">X c #CBA58F",
",X c #DBA384",
"<X c #DCA38B",
"1X c #DBA78A",
"2X c #CAA994",
"3X c #D7A694",
"4X c #C6B59E",
"5X c #D6B39D",
"6X c #E4A484",
"7X c #E3A28C",
"8X c #E7AA89",
"9X c #E3AA8D",
"0X c #E7A995",
"qX c #F1AD94",
"wX c #ECB395",
"eX c #F2B79A",
"rX c #C2B6A4",
"tX c #CDB5A1",
"yX c #C4BBA4",
"uX c #CBBCA5",
"iX c #C6BDAA",
"pX c #CABEAC",
"aX c #D6BAA6",
"sX c #CDBFB0",
"dX c #E3BEA8",
"fX c #F7BAA2",
"gX c #C8C0A8",
"hX c #CCC2AD",
"jX c #CFC9AE",
"kX c #D2C5AD",
"lX c #D1C9AE",
"zX c #CEC4B1",
"xX c #CEC9B2",
"cX c #D2C6B3",
"vX c #D3CAB4",
"bX c #DACAB5",
"nX c #D5CDB9",
"mX c #D9CDBA",
"MX c #D7D1B7",
"NX c #DBD3BC",
"BX c #EFC5AD",
"VX c #E5D3BB",
"CX c #DDD4C0",
"ZX c #E2D5C2",
/* pixels */
",.c x k g g d i d j x -.<.k.b.x.x.x.x.v.l.l.2.v.l.x.b.l.x.l.` z.z.>.j l s 4 s s ' h ' ' m.d.j W j m.Y.gXI.@X@XlXuXgXjX@XjXyXjXhX",
"j d i i d g x a.a.a.<.s.v.l.b.l.x.v.v.k.<.l.z.<.b.b.b.z.l.l.2.v.b.2.f g 5 - 7 7 6 2 5 5 < < h t d.d.d.+XU.+X4XlXgXlXgXyXgX@XyXxX",
"i g x c a.k.k.k.v.k.k.s.f.x.x.x.s.x.k.l.x.c.:.k z.n.n.z.z.z.c.c.>.2.-.7 4 X - - - * - * # - # < y d.m.d.U.@X@XlXuXgXjXvXyX@XjXxX",
"c ,.,.<.k.k.k.k.k.k.s.h.c.s.x.l.j k.h.x.x.x.c.s.f.b.z.z.z.f.<.W ` h -.q X X X + + * * * ; - # # < y d.d.U.+XgX4X+X4XlXlXjXjXxXjX",
".Xa.k.k.v.v.v.k.s.s.d.s.f.-.x.s.l s.f.s.h.x.<.2.<.x.x.z.2.2.z.z.j.2.f # X X ; q p 9 + = * * # = # # < d.j.d.4XgX4XgXjXjXxXMXxXjX",
"k.v.k.k.k.k.k.s.s.s.s.s.s.s.h.h.s.l.x.l.l.:.l <.<.f.z.<.>.c.+XXXF.f 0 y g ] =.y.P.L.0./ 8 + # + o o # 0 h d.j.jXyXMXlXvXlXxXMXxX",
"v.c k.k.k.k.:.-.d.s.s.d.s.h.x.f.f.l.l.v.2.j j g :.2.-.-.` XXz.W W ) Y Y ) +.6.e.u.e.y.A.D.1.u # o # # < < d.m.U.gXlXxXMXxXxXMXxX",
"a.x a.k.k.a.k.<.s.h.s.d.s.s.c.s.s.s.s.<.<.x -.<.l.x.x z ` W f 1.N.C Y ^ 8.e.@.e.*.r.*.r.Z.Z.P.=.< # # # # < j W OXVXjXMXxXxXMXxX",
"k.c s.k.k.s.s.s.s.s.s.d.s.s.h.s.<.s.<.<.>.<.k.v..X<.v.v.3 3 ) 9.Y Y 8.A.$.| | &.V.V.R.E.^.).~.~.B.u # # 2 y h d.c.kXlXMXlXvXMXjX",
"a.a.a.s.a.a.a.a.a.s.,.>.s.s.s.` l.<.-.-.>.v.z.b..X,.<..Xp 9.1./ Q X.6.e.@.8.@.A.A.E.E.).^.'.].).~.B.u # # < ' I.h.XXlXMXjXvXvXMX",
"a.a.a.a.a.a.a.a.` >.>.>.s.l.s.:.>.-.<.x.f.<.x.v.v.<.<.-.g p 9 e B | #.#.X.G C F [ Z.`.`.).).).{.)._.B.8 ; < 0 h j c.4XMXjXvXxXMX",
"a.s.s.a.a.a.a.a.a.:.:.l s.j n.l.k x.v.z.l.f.z.x.v.<.j ; & & ; 8 u G X.6.! w : : 8 8 ^ K.{.'.{.=X X)._.@.8 # # < y m.h.NXxXnXlXMX",
",.,.a.a.c c a.k.x :.-.,.k.-.x.k.-.x.v.x.z.z.v.2.9.-.: ; ; @ ; e C ^ X.G e 9 : ; : : : w P !.*X=X X{.{.~.E ; = # 5 d j jXxXMXxXvX",
"c x x l k k.b.k.:.k.v.l.s.x.v.2.<.s.l.f.z.v.S.2.2.=.W W f r A +.| o.q...r a a p 9 e e r w V ~.*X,X X{.P.[ y 9 W h h l +XhXMXjXvX",
"x l c ,.a.k.k.k.k.x.x.x.x.c.x.x.2.l.l.x.z.x.9.v.2.;./ / I K G } }  .p.&XF e J =.5.=...P m D K.1X9X1X{.A.=.y 0 7 s h.t m.gXMXjXMX",
",.c a.,.a.k.b.k.v.b.x.x.h.n.n.b.f.x.x.z.z.z..XS.9./ K K A V G H  .O.E.-X0.$ A 0.0.3.0.t.u.D ~.wX1X1X_.P.] a 2 3 * h :.d.jXNXjXNX",
"k.a.k.k.k.k.x.x.k.b.b.x.z.n.n.n.c.c.c.c.c.c.S.S.1.e $ : $ V G } %.p.].<X-X, $ V T Y Y T Z.Z.V.).9X9X_.B.E y 3 q s g t h jXMXvXMX",
"k.k.x.k.x.x.b.k.b.z.c.x.n.n.n.b.b.x.x.c.c.c.S.D.=.Q Y X.6.4.u.e.(.=X(.<X0X!.w m m % $ % C `.).).9X9XW.B.K p 0 q 4 7 j j +XnXvXMX",
"v.k.b.b.k.b.b.k.b.x.z.z.n.I.n.c.z.x.x.c.c.2.N.D.L B V G o.u.u.q.^.7X(.:X0X&X!.| X.X.{ Z.V.{ V. X9X9X'.C.E s 3 4 1 ; d ` gXMXMXMX",
"v.k.x.k.x.x.k.b.z.x.x.x.-.H.I.,.<.c.n.c.c.F.G.[ ! F H P , ..4. .D q.].-X=XO.!.u.u.&.V.V.E.V.{ E.8X9X,XP._ s p 3 3 2 2 d gXNXMXMX",
"v.k.x.k.k.k.a.x.x.x.h.f.>.M.c.f.h.n.M.H.G.G.D.^ P H F G O M P } O O O.0X-Xv w.u.R.!.^.(.[.Q. X[.{.8X9X%X7.W d 3 2 t 6 t OXNXlXMX",
"x.a.k.x.b.b.x.x.x.x.f.z.c.M.M.h.c.c.c.F.S.G.L.X.P M L F H P N , > O N w.p.$ q.u.R.W.(.|.wX XV. XW.8X9X%X7.Y f 7 t t t g I.MXjXMX",
"k.a.k.b.b.k.x.x.x.f.h.h.n.m.m.j.x.z.c.F.D.aX_ y.b F 3.F P 4.I ..I I M F , >  .u.T.~.^.{.|.|.T.eX X X9X X7./ f y 5 7 6 6 U.MXjXMX",
"x.k.x.k.b.x.x.x.x.h.x.x.n.m.m.x.c.z.c.H.oX3Xy.P F o.I L 3.4.4.0.3.t.i.$XV v o.e.R.~.{.wXwX XeX*X8X X1X_.~ h f 7 7 6 6 t @XMXjXMX",
"k.x.x.v.b.z.x.z.x.h.x.c.m.m.x.h.j.N.c.c.BX%X6.b ..P L L 4.P ..6...t.!.$X..v o.K.R.E.,XfXBX8XeXQ.8X{.,XZ.E f p 3 4 4 6 t gXNXMXMX",
"v.x.b.b.b.b.b.z.x.x.x.c.m.M.n.h.j.j.F.U.VXL.G ( ( L L } ..4.U U I w.!.$X!.w G q.A.~.1XeXfXeXwXwX8X1X1X+.J p p 4 4 6 2 t xXNXvXNX",
"v.b.x.b.b.n.n.x.h.x.c.h.x.c.m.m.j.j.F.oXaX8.F 5.P L F F G H M b F ..q.!.$Xm m #.Z.^.1X9XBXeXeXeX8X,X,XN.y p 7 4 2 i 6 2 MXNXvXNX",
"x.b.b.n.b.c.c.c.h.x.x.x.c.j.m.j.F.F.F.aXoX_ ( 6.Q N b L 6.o.H V > v V 4.~.T m } C.{.9X1XfXfXeXwX1X XP.N.0 7 s 7 2 i 2 t MXNXMXNX",
"x.b.M.n.b.n.c.x.m.n.n.x.m.m.m.m.m.F.G.2XY.+.5.3.V : 1.%X5X-X5X3X_.A w r 5.T R G C.).9X,XfXfX0X9X9X~.+.W 0 ; y t 2 2 1 d lXNXMXNX",
"x.b.b.b.n.x.x.c.c.n.m.x.h.m.j.m.m.F.U.2XL.+.3.I N ; 2XoXaXtXaXuXVX%XoX@ b w +.| Z.,X1X,X3XwX0X1X1X@.m u 8 : 9 ; 7 1 2 M.NXNXNXNX",
"b.b.b.b.x.x.h.x.x.n.n.x.m.m.j.m.m.m.G.OXD.3.X.L : = <.; . . . . f aX9., $ S +.@.V.,X1X%X1X0X1X,X,X+.m m S S J 5.a ; 7 NXnXCXMXNX",
"b.x.x.x.x.c.x.j.c.n.m.n.m.m.m.j.m.F.Y.Y.0.3.( Q @ O = - . . . .   ; f r : T @.&.A.,X,X{.,X,X,X,X%Xm b +.%X-X4.L %Xq -.CXmXCXnXCX",
"b.x.x.c.x.c.x.c.z.H.n.c.m.m.c.c.c.F.J.Y.0.....( , @ + O       .     O J I J X.r.~.,X`.`.,X=X=X=X-XT m R.&X;XU $ !., tXCXnXnXcXCX",
"x.n.n.b.M.M.c.n.c.c.c.z.I.F.c.c.j.F.J.Z.7.( ( P N N N N K K I I L I oX$X=.I @.C._.,X_.{.*X&X&X*X-X~.m -X&XqXi...Z f pXZXnXCXcXCX",
"x.x.c.c.n.>.>.c.c.x.h.-.c.c.>.2.c.F.L.D.6.! ..P I I ..I I 4.t./.$X$X%X-Xe.D #.A.{.%X~.{.&X&X&X-X-X`.| fXi.U ;X;X, 3XsXZXnXCXcXnX",
"<.x.n.c.n.>.d.c.x.c.h.>.x.H.g.h.F.F.G.D.5.! ! ( ....4.4.O.4.w./.&X$X$X$Xe.T 6.~.).~._.`.`.&X&X=X=X:X-X0Xi.v i.;X, dXZXCXnXnXnXCX",
"f.l.c.x.x.f.f.x.g.c.h.h.m.n.I.c.F.F.F.B._ Q ! ..3...4.....} q.!.(.`._.~.8.{ e.P.!.A.~.`.{./.(.&X=X:X:XeXfXv v ;Xv dXmXNXnXNXnXCX",
"z.z.c.v.f.x.x.h.x.c.h.x.c.c.g.c.n.F.N.7.[ T Q 3.3.3.I I P } o.R._._._.~.e.+.A.P.A.V.A.~.!./.(.].-X:XW.:X0Xn M ;XF VXmXZXnXNXzXCX",
"l.f.c.x.l.h.x.h.h.f.g.h.j.j.j.h.j.F.F.7.[ Q G ! ..=.I I ! ^ 6.A.K.~.P.K.V.e.A.Z.A.Z.A.!.!.^./.].=X=X(.i.(.0Xi.u.%XVXbXmXmXCXvXCX",
"f.l.x.x.l.h.x.f.f.f.h.h.j.M.h.h.c.F.G.N.1.Q G K L ( I ( X.+.6.8.Z.K.C.C.C.Z.Z.y.e.e.u.A.R.R.(.[.}. .p.;X;X;X7X%XBXZXcXCXmXCXvXNX",
"l.l.l.x.f.h.l.f.f.h.h.j.j.j.h.h.c.G.D.9.D./ S S ) / ! ! _ +.8.y.~._.P.C.Z.Z.A.y.e.e.&.r.p.E.W.[. .v U p.7X*X_.BXVXVXbXCXmXCXvXCX",
"v.z.l.z.f.l.h.x.h.h.j.j.j.c.h.x.m.F.XXS.9.K / / 5.=.! / _ 5.B.~._.Y.P.C.Z.Z.C.w.&.&.*.r.p.T.Q.(.v v n u.X.Y kXVXmXVXvXZXmXZXbXZX",
"l.l.x.x.h.x.l.x.c.h.h.c.c.c.c.c.c.F.XXG.1./ _ 5.L.0.X.~ _ 7.B.L.P.Y.P.C.Z.A.Z.r.V.V.*.p.T.E.'.=X}.(./.0Xe Y.VXVXmXNXvXZXNXZXmXZX",
"<.k.2.v.l.l.l.s.s.h.h.d.d.d.k.h.j.m.H.S.1./ =.=.7.5.[ Q ^ +.7.y.B.Z.L.Z.V.Z.Z.Z.V.V.*.p.T.W.'.:XqXqX9X^ h 4XVXNXVXNXkXVXmXZXmXCX",
"x ` -.x -.-.-.;.-.' -.>.` a.s.>.>.2.g.g.1./ K P / Q A A B Q [ +.B.B.Z.Z.Z.Z.Z.V.T.r.T.p.*.W.[.qX6X0X$Xe OX4XMXlXjXkXiXcXiXzXrXrX",
"k ` x -.-.` -.-.:.' -.-.>.` >.>.>.2.g.9.1.=.K J S Z B a u B T +.+.B.C.Z.C.Z.V.Z.V.V.R.R.E.(.].7X7X-X7.0 vXiXnXbXhXcXrXcXpXcXrX4X",
"k k -.-.-.-.-.` -.-.>.:.:.` :.s.2.d.c.N.1._ ) E A Z a B r r S ~ ^ B.B.B.B.V.&.e.V.T.R.W.(.'.[.:X7X*Xu s.nXiXvXCXcXvXrXbXsXcXrX4X",
"k x -.:.:.-.W ` -.-.-.:.:.:.,.2.<.z.z.S.9.[ ) ) / Q J Z a e a T ^ @.@.8.@.@.@.@.*.R.W.^.'.[.[.7X3X7.9 uXzXgXnXnXbXvXiXnXiXcXiX@X",
"x x c :.-.-.` ` ' ,.<.-.<.,.,.<.l.z.z.H.9.=.~ _ ) / / J Z e a Y T ^ | @.@.@.@.$.V.R.).Q.].}.-X<X<Xu S.cXxXzXnXnXxXnXiXCX#XxXsX#X",
"k x :.:.x x l l x ,.<.:.z ,.-.<.z.z.9.J.9._ ~ / Q K K A B u r m T R ^ | R R @.r.A.~.W.).).=X7X<XL.q gXvXhXhXxXxXnXxX#XzXzXCXzX#X",
"c c :.:.c x c x :.<.<.,.,.,.-.<.f.z.z.J.7._ _ / / K K Z a e u m m R | | R { o.e.R.~.~.).'.*X-X3XE XXgXcXhXzXzXzXxXcXiXCXiXnXzX#X",
",.x ,.:.c c c x c ,.<.<.,.<.<.2.f.z.S.J.=._ _ ) / Q K Z r e w r m R R | R R o.A.~.^.E.).'.=X<X3X5XgX+XgXxX#XnX#XzXnXzXCXsXCXcX#X",
"c x ,.c c ,.c ,.,.<.<.k.<.k.<.<.x.z.S.L.X._ X.=._ Q S B r r e w m m R R R { @.V.!.E.).).{.*X<X3XaXiX@XcXxXiXCXzXsXcXrXCXsXCXsXrX",
"x :.x ,.,.x c ,.,.,.<.<.v.<.k.v.c.c.G.1._ X.5.3.6._ ! C m w w b T T R D H | $.u.E.E.).).].,X<X3XdXvXcXbXxXiXnXxXsXmXsXmXsXcXsXrX",
",.x c c x c ,.,.,.,.2.<.k.s.k.l.x.g.G.7.X.+.+.#.6.6.X.! C V C T R ! { { ! o.&.R.W.W.W.'.{.=X7X3XcXcXbXcXxXiXCXCXzXmXpXCXsXsXsXiX",
"c ,.,.x ,.c x ,.,.,.<.<.v.f.s.f.x.j.G.+.X.o.o.4.6.$.| | ! R R ! +.6.o.o.| @.&.R.W.'.Q.'.}.6X1X>XbXcXzXzXzXiXCXnXsXnXsXCXsXCXsXiX",
"c ,.,.x c :.:.:.,.<.<.z.2.f.2.f.g.j.G.[ @.o.O.O.q.q...X.X...} X.6.e.q.e.q.$.$.V.Q.Q.[.[.|.|.1XOXaXkXcXxXhXiXnXnXzXnXhXnXsXnXzXiX",
"x x c ,.:.:.c :.,.<.<.l.v.f.f.f.j.G.Z.[ 6.q.q.$.q.r.O.o.#.X.X.o.6.q.e.q.q.%.%.T.Q.Q.[.|.|.|.1X_.aXhXcXcXhXgXnXnXzXnXhXxXhXxXiX#X",
"c c :.c c :.c :.,.,.<.l.l.d.d.h.j.B.B.5.q.q.u.r.w.w.q.6.6.4.o.o.q.e.e.r.r.*.%.T.Q.[.|.|.|.|.|.{.2XkXaXkXiXyXnXnXpXnXhXCXiXzXiX#X",
"x ,.x ,.c :.:.:.,.<.2.v.2.f.g.9.[ D.Z.6.q.w.w.w.w.w.w.o.o.#.o.O.$.e.%.&.&.*.*.T.Q.[.[.|.|.|.|.,X%X4XkXkXhXgXnXcXhXzXiXxXzXCXiX#X",
",.x ,.:.:.:.:.,.<.2.2.2.S.F.G.~ Y 3Xy.q.e.w.r.w.r.r.w.O.o.q.#.o.$.$.&.*.*.*.T.W.Q.[.[.|.8X8X6X}.`.2X5XlXpXiXcXnXsXzXsXcX#XzX#X#X",
"x ,.:.,.,.>.>.s.2.1.D.D.7._ ~ Q T -Xe.#.w.r.u.u.w.q.$.%.q.$.$.$.%.$.*.*.r.T.T.W.Q.[.[.|.6X6X6X[.'.Y.1XkXuXiXcXxXsXcXsXcXzXzX#X#X",
"-.-.,.,.-.;.;.2.9.7.~ ! Q ^ | ^ ! `.6.e.u.u.u.e.w.q.$.q.$.q.q.$.%.*.*.*.T.T.W.W.Q.[.|.|.6X6X6X}.'._._.5XtXtXcXxXhXcXsXcXiXsXiX@X",
"x :.-.<.2.2.] A A T H } X.| | ! ! K.q.w.u.u.u.y.w.q.$.$.q.q.q.%.r.*.*.*.T.W.W.'.Q.[.|.|.8X6X8X=X}.{.,XY.>XrXnXxXpXcXiXzXiXsX#X@X"
};
